<?xml version="1.0" encoding="utf-8"?>
<!-- Generator: Adobe Illustrator 23.0.3, SVG Export Plug-In . SVG Version: 6.00 Build 0)  -->
<svg version="1.1" id="Layer_1" xmlns="http://www.w3.org/2000/svg" xmlns:xlink="http://www.w3.org/1999/xlink" x="0px" y="0px"
	 viewBox="0 0 39.5 52" style="enable-background:new 0 0 39.5 52;" xml:space="preserve">
<style type="text/css">
	.st0{fill:#005DAA;}
	.st1{fill:#FFD200;}
	.st2{fill:#FFFFFF;}
</style>
<path class="st0" d="M39.5,45.6c0,1.7-0.7,2.7-2.1,3.2C32.1,50.9,25.8,52,19.8,52c-6,0-12.3-1.1-17.7-3.1C0.7,48.3,0,47.3,0,45.6V0
	h39.5V45.6z"/>
<path class="st1" d="M10.6,27.8c-5.5-3.4-7.3-4.9-7.4-7.2c0-0.5,0.1-1.2,0.3-1.8l-0.5-0.3c-0.4,0.7-0.7,1.5-0.7,2.3
	c0,1.3,0.4,2.3,0.9,3.1c0.8,1.2,1.6,1.9,3.6,3.4c2.1,1.6,3.6,3.5,4.5,5.5h0.3v-2.2c2.9,1.6,5.5,3.2,6.7,6h0.3
	C18,33.6,16.4,31.4,10.6,27.8"/>
<path class="st1" d="M35.8,36.5h-0.4c0-2-1.9-2.6-3.8-2.6h-6.1c0.2,1,0.3,2.2,0.1,3.3h-0.3c-0.6-4.6-3.2-6.9-6.8-9.3V30h-0.3
	c-1-2.2-3.1-4.2-5.1-5.6c-0.5-0.4-1.1-0.8-1.6-1.2v2.3h-0.3c-0.9-2.2-2.4-3.9-4.6-5.9c-2.4-2.1-3.3-3.4-3.9-4.9
	c-0.3-0.9-0.4-1.6-0.4-2.6c0-1.8,0.9-3.3,2-3.9V9c-0.5,0.7-0.8,1.6-0.8,2.6c0,0.9,0.2,1.8,0.6,2.6c1.3,2.5,5.8,5.7,8.7,7.6
	c8.9,6,10.7,7,12.2,10.2c0.2,0.4,0.3,0.8,0.5,1.4c1.3-0.2,6-0.9,6.8-1c0.2,0,0.5-0.1,0.7-0.1c0.8-0.5,1.4-1.2,2-2L31.4,30
	c-0.2,0.4-0.4,0.7-0.5,1h-0.3c0.1-0.3,0.2-0.7,0.2-1L30,29.9v-0.2l0.9-0.1c0.2-1,0.3-1.9,0.3-2.7L27,26.6c0,0.4,0,0.9,0,1.2h-0.3
	c-0.1-0.4-0.2-0.9-0.2-1.3l-0.9-0.1v-0.3l0.9,0c-0.1-1.1-0.1-2.2-0.1-3.1L23.8,23c0.1,0.2,0.2,0.4,0.3,0.7c0.5,1.5,0.4,3.3,0.2,4.1
	h-0.3c0-0.9-0.4-2.1-0.7-2.8c-0.7-1.6-2.3-3.1-4.9-4.8v2.1h-0.3c-0.9-2.8-3-4.3-6.3-5.9c-2.7-1.4-3.5-3-3.3-5.5l0.9,0.5
	c0.2,2.4,2.1,3.8,4,3.7c1.1,0,2.2-0.2,3.2-0.4c1.5-0.3,2.8-0.6,4-0.1v-1.4h-0.9c-0.3,0.3-1,0.6-1.9,0.6c-1,0-3-0.6-3-2.8
	c0-1.9,1.6-2.2,3-2.2c0.7,0,1.9,0,2.3,0c0.3,0,0.5-0.1,0.7-0.2C20.9,8.4,20.9,8.2,21,8c0-0.2,0-0.5,0-0.9V5.7h-6.1v2.4l-2.3-0.9V6.7
	h1.1v-1H9.5v-2H8.1c-0.8,0-1.6,0.5-1.7,1.6c-0.1,1,0.4,1.8,1.4,1.8H8v1.2H7.8C6,8.2,4.7,6.9,4.7,5.1c0-1.8,1.6-3.2,3.5-3.2h3v2h11.7
	v3c0,0.5,0,1.2-0.1,1.6c0,0.3-0.1,0.9-0.7,1.3c-0.4,0.3-0.9,0.4-1.8,0.4c-0.3,0-1.1,0-2.1-0.1c-1.3-0.1-1.7,0.4-1.8,0.9
	c0,0.1,0,0.2,0,0.3c0.6-0.5,1.5-0.8,2.5-0.5c1.8,0.6,2.3,0.6,3.2-0.1l0.1,0.2c-0.1,0.2-0.3,0.4-0.5,0.6h0.8v4.6l2.6-1.6h7.4
	c0,0,3.1,1.6,3.7,1.9c0.5,0.2,0.6,0.5,0.7,1c0.1,0.4,0,0.8-0.2,1.1c-0.1,0.2-1,1.6-1.4,2.3c1.3,1.4,2.1,3.3,2.1,5.4
	c0,1.9-0.7,4.4-3,6.3c1,0.3,1.7,0.9,2.2,1.6L35.8,36.5z M19.3,11.7c-1-0.2-1.6-0.1-2.2,0.5c0.3,0.1,0.7,0.2,1.1,0.2
	C18.7,12.3,19.1,12,19.3,11.7 M18.7,18.4l2.9-1.8c-0.6-0.3-1.2-0.5-2-0.5c-1,0-2.7,0.4-3.5,0.6C16.5,16.9,17.8,17.8,18.7,18.4
	 M31.8,18.5l0.4-0.6l-0.6-0.8l0.1-0.2l1.8,1L33,19.1c0.3,0.1,0.5,0.3,0.9,0.5l1.1-1.9l-3-1.5h-6.6l-5.3,3.2c1,0.7,1.9,1.4,2.6,2.2
	c1.4-2.1,3.9-3.4,6.4-3.4C30,18.2,31,18.3,31.8,18.5 M31.2,26c0-1-0.2-1.9-0.3-2.6l-3.5-0.2c-0.2,1.1-0.4,2.1-0.5,3L31.2,26z
	 M32.4,23.4c0.1,0.9,0.1,1.7,0.1,2.5l3.4-0.2c-0.1-0.8-0.3-1.5-0.6-2.2L32.4,23.4z M30.7,22.3c-0.4-1.2-0.8-2.1-1-2.5
	c-0.1,0-0.3,0-0.4,0c-0.2,0-0.5,0-0.7,0.1c-0.3,0.9-0.6,1.7-0.9,2.6L30.7,22.3z M31.6,20.2c0.3,0.7,0.4,1.4,0.6,2l2.1-0.1
	C33.6,21.2,32.7,20.6,31.6,20.2 M35.5,29.1c0.2-0.6,0.4-1.2,0.5-1.9L32.4,27c-0.2,1-0.4,1.9-0.7,2.6L35.5,29.1z M26.7,20.3
	c-1.2,0.5-2,1.3-2.8,2.3l2.4-0.1C26.4,21.4,26.6,20.7,26.7,20.3"/>
<path class="st2" d="M22.1,41.8c1-0.2,2-0.9,2-2.1c0-1.1-0.5-2.2-3.6-2.2h-5.3v0.1c0.2,0,0.4,0.2,0.6,0.3c0.4,0.4,0.5,0.9,0.5,1.6
	v7.9h4.4c2.4,0,4.1-0.9,4.1-3C24.8,42.6,23.5,41.9,22.1,41.8 M19.9,38.4c1.1,0,1.9,0.2,1.9,1.4c0,1.3-1,1.6-2.2,1.6h-1v-3H19.9z
	 M20,46.4h-1.4v-4h1.3c1.8,0,2.5,0.6,2.5,1.9C22.5,45.8,21.6,46.4,20,46.4"/>
<path class="st2" d="M11.4,47.3h2.8l-3.6-4.6c1.5-0.4,2.5-1.2,2.5-2.6c0-1.7-1-2.6-3.7-2.6H4v0.1c0.2,0.1,0.4,0.2,0.6,0.3
	c0.4,0.4,0.5,1,0.5,1.7v7.7h2.3v-4.4h0.8L11.4,47.3z M7.3,38.4h1.5c1.3,0,1.9,0.4,1.9,1.7c0,1.2-0.9,1.9-2.3,1.9H7.3V38.4z"/>
<path class="st2" d="M34,38.8c0.6,0.3,0.8,0.8,0.8,0.8c0,0,0.1,0,0.1,0l0.5-1.7c0,0-0.9-0.6-3-0.6c-3.2,0-5.6,1.6-5.6,5.1
	c0,4,2.9,5,5.4,5c2.3,0,3.3-0.7,3.3-0.7v-1.2c0,0-0.8,0.8-2.6,0.8c-1.5,0-3.6-0.7-3.7-3.9c0-3,1.3-4,3-4
	C33.2,38.4,33.7,38.6,34,38.8"/>
</svg>
